#!OML:ASF F:\VICON\USERDATA\INSTALL\rory3\rory3.ASF
:FULLY-SPECIFIED
:DEGREES
600
root 4.56971 15.7169 1.94071 21.9372 -7.60784 -3.73344
lowerback 13.2495 -0.999497 3.33005
upperback 4.33404 -0.87024 0.886534
thorax -2.90224 -0.434519 -0.818143
lowerneck -13.3102 -0.578601 -1.97625
upperneck 35.9237 0.577051 -2.68411
head 14.6376 -0.422559 -0.673691
rclavicle 5.96354e-015 -1.47101e-014
rhumerus -69.305 51.2256 -76.3146
rradius 57.8162
rwrist -10.8466
rhand -11.0772 -40.0254
rfingers 7.12502
rthumb 14.9461 -69.4661
lclavicle 5.96354e-015 -1.47101e-014
lhumerus -64.5308 -62.5471 74.7217
lradius 52.6427
lwrist 28.4235
lhand -20.8892 -32.4293
lfingers 7.12502
lthumb 5.48132 -2.52017
rfemur -77.6724 0.459164 20.5654
rtibia 40.0714
rfoot 38.8641 1.72119
rtoes 6.80995
lfemur -57.3293 -0.97866 -26.1832
ltibia 62.5311
lfoot -24.7877 6.06709
ltoes 15.0328
601
root 4.56387 15.7044 1.93314 21.9308 -7.62392 -3.58679
lowerback 13.1759 -0.98123 3.19883
upperback 4.48124 -0.873133 0.807286
thorax -2.70805 -0.432206 -0.828771
lowerneck -13.4827 -0.633195 -1.86946
upperneck 35.8559 0.495339 -2.74897
head 14.6447 -0.450887 -0.732187
rclavicle 1.31198e-014 7.55382e-015
rhumerus -69.0204 51.2551 -76.0225
rradius 57.8081
rwrist -10.8753
rhand -11.554 -40.2897
rfingers 7.12502
rthumb 14.4868 -69.7639
lclavicle 1.31198e-014 7.55382e-015
lhumerus -63.9535 -62.6796 74.0106
lradius 52.5853
lwrist 28.5468
lhand -20.2509 -32.3791
lfingers 7.12502
lthumb 6.09762 -2.4868
rfemur -77.7999 0.46087 20.3886
rtibia 40.1512
rfoot 38.7916 1.44516
rtoes 6.94725
lfemur -57.4359 -1.02294 -26.3126
ltibia 62.6115
lfoot -24.7542 6.11137
ltoes 14.815
602
root 4.55465 15.6892 1.92176 21.8975 -7.69036 -3.36563
lowerback 13.3339 -0.872898 2.94197
upperback 4.60188 -0.764517 0.695259
thorax -2.66199 -0.377451 -0.816712
lowerneck -13.9734 -0.699085 -1.51707
upperneck 35.9411 0.408763 -3.00269
head 14.7975 -0.476273 -0.918388
rclavicle 5.96354e-015 2.5842e-015
rhumerus -68.8362 51.1015 -75.75
rradius 57.8301
rwrist -10.923
rhand -11.4481 -40.4434
rfingers 7.12502
rthumb 14.5888 -69.9103
lclavicle 5.96354e-015 2.5842e-015
lhumerus -63.3884 -63.1676 73.3823
lradius 52.5099
lwrist 28.6091
lhand -20.5287 -32.7628
lfingers 7.12502
lthumb 5.82937 -2.86298
rfemur -77.9101 0.567316 20.0291
rtibia 40.2086
rfoot 38.8221 1.49008
rtoes 6.43613
lfemur -57.5358 -1.03458 -26.527
ltibia 62.6705
lfoot -24.6924 6.15404
ltoes 14.6074
603
root 4.55771 15.6997 1.92757 21.9194 -7.67513 -3.35689
lowerback 13.1884 -0.764508 3.08212
upperback 4.75414 -0.617834 0.602356
thorax -2.42053 -0.299686 -1.01737
lowerneck -14.687 -0.838128 -1.33768
upperneck 36.332 0.164588 -2.95104
head 15.1464 -0.553747 -0.982748
rclavicle 2.10712e-014 -5.96354e-015
rhumerus -68.8425 51.4905 -75.7237
rradius 57.8141
rwrist -11.5193
rhand -10.4882 -40.7025
rfingers 7.12502
rthumb 15.5135 -70.1001
lclavicle 2.10712e-014 -5.96354e-015
lhumerus -62.7143 -63.6543 72.6687
lradius 52.4386
lwrist 28.4813
lhand -21.1862 -32.7603
lfingers 7.12502
lthumb 5.19457 -2.84393
rfemur -77.8825 0.399851 20.2104
rtibia 40.2351
rfoot 38.7867 1.83753
rtoes 6.02206
lfemur -57.4653 -1.09069 -26.5405
ltibia 62.6381
lfoot -24.7724 6.20616
ltoes 14.6836
604
root 4.55717 15.7025 1.92871 21.9134 -7.64259 -3.44411
lowerback 13.1666 -0.80842 3.18981
upperback 4.75814 -0.661968 0.633538
thorax -2.4068 -0.320876 -1.03908
lowerneck -14.604 -0.859743 -1.48387
upperneck 36.4492 0.12587 -2.81528
head 15.1834 -0.572927 -0.908081
rclavicle -3.18055e-015 1.33186e-014
rhumerus -68.7145 51.1391 -75.4086
rradius 57.6446
rwrist -10.7061
rhand -9.20634 -40.8877
rfingers 7.12502
rthumb 16.7478 -70.1853
lclavicle -3.18055e-015 1.33186e-014
lhumerus -62.9513 -63.6327 72.6549
lradius 52.434
lwrist 28.1195
lhand -20.9657 -32.3134
lfingers 7.12502
lthumb 5.40746 -2.40239
rfemur -77.8233 0.365375 20.3802
rtibia 40.2208
rfoot 38.7206 1.88921
rtoes 5.54858
lfemur -57.4388 -1.09001 -26.4328
ltibia 62.6215
lfoot -24.7803 6.21851
ltoes 14.7016
605
root 4.55929 15.7068 1.92901 21.8639 -7.62491 -3.49593
lowerback 13.1304 -0.803745 3.32794
upperback 4.81175 -0.642207 0.622384
thorax -2.33133 -0.308746 -1.13211
lowerneck -14.5044 -0.912056 -1.52585
upperneck 36.5288 0.0302117 -2.7356
head 15.1972 -0.607981 -0.883764
rclavicle 2.82274e-014 -1.21259e-014
rhumerus -68.6936 51.3424 -75.3282
rradius 57.5198
rwrist -10.5634
rhand -8.9038 -40.8751
rfingers 7.12502
rthumb 17.039 -70.1478
lclavicle 2.82274e-014 -1.21259e-014
lhumerus -63.1008 -63.9738 72.5681
lradius 52.5447
lwrist 28.3163
lhand -20.8559 -32.1561
lfingers 7.12502
lthumb 5.51347 -2.2478
rfemur -77.7008 0.275653 20.5632
rtibia 40.1707
rfoot 38.6674 2.08554
rtoes 5.24194
lfemur -57.3494 -1.15466 -26.3533
ltibia 62.5892
lfoot -24.7579 6.23769
ltoes 14.8761
606
root 4.56282 15.7155 1.92961 21.8574 -7.67217 -3.45112
lowerback 13.0339 -0.791277 3.33356
upperback 4.8283 -0.630518 0.598561
thorax -2.26165 -0.301643 -1.16281
lowerneck -14.5257 -0.940569 -1.57508
upperneck 36.7444 -0.00792382 -2.69434
head 15.3072 -0.627341 -0.868645
rclavicle 1.11319e-014 4.17448e-015
rhumerus -68.7537 51.4411 -75.2676
rradius 57.3517
rwrist -10.3807
rhand -9.78214 -40.6606
rfingers 7.12502
rthumb 16.1934 -70.0042
lclavicle 1.11319e-014 4.17448e-015
lhumerus -62.9113 -63.9737 72.2108
lradius 52.4494
lwrist 28.4373
lhand -20.0212 -32.1541
lfingers 7.12502
lthumb 6.31939 -2.26841
rfemur -77.6196 0.161888 20.6583
rtibia 40.1072
rfoot 38.6406 2.39902
rtoes 5.23803
lfemur -57.2806 -1.25589 -26.3872
ltibia 62.5486
lfoot -24.7877 6.35105
ltoes 14.862
607
root 4.56085 15.7152 1.9294 21.9378 -7.71189 -3.48386
lowerback 12.9133 -0.806659 3.31148
upperback 4.8167 -0.657081 0.631867
thorax -2.20933 -0.314547 -1.1128
lowerneck -14.5568 -0.903218 -1.6286
upperneck 36.8927 0.0694488 -2.70264
head 15.3888 -0.605895 -0.853125
rclavicle 6.95746e-015 1.39149e-015
rhumerus -68.7685 51.6928 -75.171
rradius 57.2332
rwrist -10.3975
rhand -10.7839 -40.7151
rfingers 7.12502
rthumb 15.2287 -70.1346
lclavicle 6.95746e-015 1.39149e-015
lhumerus -62.509 -63.5629 71.6749
lradius 52.1943
lwrist 27.9668
lhand -18.7042 -32.0267
lfingers 7.12502
lthumb 7.59072 -2.18288
rfemur -77.6682 0.154916 20.7721
rtibia 40.0661
rfoot 38.6248 2.59534
rtoes 5.02826
lfemur -57.3656 -1.27103 -26.3395
ltibia 62.5382
lfoot -24.7897 6.45977
ltoes 13.707
608
root 4.56102 15.7153 1.92633 22.0063 -7.66695 -3.56246
lowerback 12.8699 -0.836358 3.41981
upperback 4.80518 -0.683471 0.663413
thorax -2.19948 -0.327019 -1.1374
lowerneck -14.5465 -0.895952 -1.79119
upperneck 37.0089 0.0669304 -2.52906
head 15.4441 -0.60746 -0.753301
rclavicle -9.93923e-016 -1.53064e-014
rhumerus -68.8796 51.9917 -75.1831
rradius 57.1562
rwrist -10.4689
rhand -10.739 -40.7983
rfingers 7.12502
rthumb 15.2719 -70.2145
lclavicle -9.93923e-016 -1.53064e-014
lhumerus -62.3682 -63.4524 71.3668
lradius 52.1022
lwrist 27.6972
lhand -18.2302 -31.5713
lfingers 7.12502
lthumb 8.04819 -1.74459
rfemur -77.7228 0.0842698 20.9694
rtibia 40.0444
rfoot 38.635 2.78428
rtoes 4.61846
lfemur -57.4381 -1.30411 -26.232
ltibia 62.5244
lfoot -24.7675 6.4056
ltoes 11.3296
609
root 4.56254 15.7181 1.92372 21.982 -7.64425 -3.47951
lowerback 12.9101 -0.968467 3.32574
upperback 4.74925 -0.862891 0.712262
thorax -2.28605 -0.418277 -1.00642
lowerneck -14.218 -0.82154 -2.25678
upperneck 36.9312 0.194311 -2.23348
head 15.3306 -0.578384 -0.520367
rclavicle 3.39922e-014 -3.97569e-016
rhumerus -69.0943 52.9641 -75.3118
rradius 57.1666
rwrist -10.6564
rhand -10.3065 -40.7999
rfingers 7.12502
rthumb 15.6885 -70.1838
lclavicle 3.39922e-014 -3.97569e-016
lhumerus -63.0727 -63.3613 71.7975
lradius 52.1056
lwrist 27.8105
lhand -18.4667 -30.9956
lfingers 7.12502
lthumb 7.81986 -1.16018
rfemur -77.7222 -0.0101225 20.9312
rtibia 40.0592
rfoot 38.6543 2.89521
rtoes 4.31908
lfemur -57.4062 -1.37388 -26.3059
ltibia 62.5052
lfoot -24.7638 6.35052
ltoes 14.2815
610
root 4.56112 15.7157 1.92153 21.9392 -7.71064 -3.31901
lowerback 12.9513 -1.00794 3.11143
upperback 4.76328 -0.939419 0.706339
thorax -2.29445 -0.457384 -0.880266
lowerneck -13.9892 -0.776695 -2.3685
upperneck 36.6521 0.302046 -2.29312
head 15.142 -0.5525 -0.501903
rclavicle -2.5842e-014 5.36719e-015
rhumerus -68.9366 53.4211 -74.9739
rradius 57.2215
rwrist -10.6957
rhand -10.2662 -40.9005
rfingers 7.12502
rthumb 15.7273 -70.2815
lclavicle -2.5842e-014 5.36719e-015
lhumerus -63.2859 -63.3443 71.8618
lradius 52.0081
lwrist 27.9013
lhand -19.0696 -30.8567
lfingers 7.12502
lthumb 7.23797 -1.00046
rfemur -77.7388 -0.00367202 20.7236
rtibia 40.0852
rfoot 38.7095 2.86215
rtoes 4.43446
lfemur -57.393 -1.38794 -26.4857
ltibia 62.5095
lfoot -24.7542 6.39247
ltoes 15.0151
611
root 4.55962 15.7078 1.91848 21.9508 -7.6882 -3.36741
lowerback 13.0022 -1.00239 3.18897
upperback 4.81172 -0.921565 0.720642
thorax -2.2712 -0.447516 -0.911362
lowerneck -14.042 -0.802455 -2.15899
upperneck 36.5748 0.32616 -2.62802
head 15.1184 -0.557384 -0.674634
rclavicle -1.07344e-014 -1.09332e-014
rhumerus -68.5269 53.0026 -74.3088
rradius 57.2016
rwrist -10.4469
rhand -10.0787 -40.8937
rfingers 7.12502
rthumb 15.9078 -70.2603
lclavicle -1.07344e-014 -1.09332e-014
lhumerus -62.8954 -63.2286 71.4001
lradius 51.8534
lwrist 27.8251
lhand -18.4578 -30.8926
lfingers 7.12502
lthumb 7.82848 -1.05752
rfemur -77.7834 0.0185199 20.7604
rtibia 40.1183
rfoot 38.7106 2.75093
rtoes 4.93661
lfemur -57.4661 -1.38498 -26.4287
ltibia 62.5772
lfoot -24.7294 6.42276
ltoes 14.9438
612
root 4.5585 15.7062 1.91723 21.9455 -7.4973 -3.63646
lowerback 13.0939 -1.04875 3.5175
upperback 4.88212 -0.936734 0.831282
thorax -2.24957 -0.452716 -0.978013
lowerneck -14.3081 -0.848273 -2.17013
upperneck 36.7575 0.291222 -2.66644
head 15.2705 -0.582232 -0.699968
rclavicle -1.27222e-014 5.36719e-015
rhumerus -68.3449 52.9076 -73.9997
rradius 57.017
rwrist -10.3289
rhand -10.239 -40.5471
rfingers 7.12502
rthumb 15.7535 -69.9259
lclavicle -1.27222e-014 5.36719e-015
lhumerus -62.5402 -63.129 70.9873
lradius 51.7459
lwrist 27.6825
lhand -18.1011 -31.3244
lfingers 7.12502
lthumb 8.17277 -1.50242
rfemur -77.7203 0.00655291 21.0556
rtibia 40.1452
rfoot 38.6105 2.62374
rtoes 5.02413
lfemur -57.4991 -1.43266 -26.0864
ltibia 62.6713
lfoot -24.7212 6.46469
ltoes 14.8374
613
root 4.55382 15.7039 1.91134 21.8527 -7.38222 -3.74135
lowerback 13.3979 -0.981789 3.63295
upperback 4.99291 -0.823455 0.8526
thorax -2.29329 -0.39578 -1.03472
lowerneck -14.7699 -0.947593 -2.13625
upperneck 36.9623 0.0880852 -2.47713
head 15.4779 -0.63966 -0.667234
rclavicle 1.15295e-014 -2.52457e-014
rhumerus -68.3401 52.7726 -73.9427
rradius 56.7551
rwrist -10.3001
rhand -10.8624 -40.2552
rfingers 7.12502
rthumb 15.153 -69.6804
lclavicle 1.15295e-014 -2.52457e-014
lhumerus -61.8497 -63.512 70.2848
lradius 51.7368
lwrist 27.7563
lhand -19.0021 -31.8766
lfingers 7.12502
lthumb 7.30316 -2.02262
rfemur -77.6188 0.0773323 21.0755
rtibia 40.1756
rfoot 38.6422 2.71157
rtoes 4.36762
lfemur -57.4708 -1.46406 -25.9169
ltibia 62.7436
lfoot -24.7378 6.50498
ltoes 14.5841
